<?xml version="1.0" standalone="no"?>
<!DOCTYPE svg PUBLIC "-//W3C//DTD SVG 20010904//EN"
 "http://www.w3.org/TR/2001/REC-SVG-20010904/DTD/svg10.dtd">
<svg version="1.0" xmlns="http://www.w3.org/2000/svg"
 width="700.000000pt" height="700.000000pt" viewBox="0 0 700.000000 700.000000"
 preserveAspectRatio="xMidYMid meet">
<metadata>
Created by potrace 1.11, written by Peter Selinger 2001-2013
</metadata>
<g transform="translate(0.000000,700.000000) scale(0.100000,-0.100000)"
fill="#000000" stroke="none">
<path d="M5378 6996 c-1 -2 -32 -7 -68 -10 -99 -10 -252 -43 -354 -77 -102
-33 -92 -29 -236 -98 -88 -41 -313 -178 -330 -200 -3 -3 -34 -31 -70 -61 -239
-202 -440 -494 -545 -790 -29 -82 -71 -242 -80 -305 -3 -22 -8 -45 -10 -52
-13 -38 -18 -308 -19 -963 -1 -404 0 -744 2 -755 3 -20 11 -20 555 -19 499 1
683 6 764 20 93 17 185 36 233 50 755 217 1286 860 1357 1644 3 36 6 414 6
840 l1 775 -601 2 c-331 1 -603 0 -605 -1z m972 -920 c-2 -729 0 -686 -45
-928 -25 -135 -156 -420 -257 -560 -75 -103 -196 -235 -274 -298 -31 -25 -61
-50 -67 -55 -30 -27 -189 -127 -254 -159 -145 -72 -323 -131 -463 -151 -25 -4
-70 -11 -100 -15 -30 -5 -266 -9 -523 -9 l-468 -1 4 712 c2 392 6 724 10 738
3 14 11 54 17 90 10 61 60 241 79 285 155 361 364 610 673 801 132 81 322 162
446 189 12 3 32 7 45 10 146 35 231 40 730 41 l448 1 -1 -691z"/>
<path d="M8 6579 c-11 -7 -5 -1231 6 -1289 4 -19 13 -71 22 -115 71 -373 267
-729 543 -990 36 -33 72 -67 80 -75 30 -28 166 -126 231 -167 158 -98 392
-194 559 -228 68 -15 202 -36 256 -41 87 -9 1597 -11 1615 -3 13 6 15 80 14
586 -2 639 -7 712 -60 921 -41 164 -141 403 -205 494 -11 14 -19 29 -19 32 0
3 -16 30 -36 59 -185 266 -439 489 -704 617 -47 22 -96 47 -110 54 -64 34
-302 104 -410 121 -25 4 -53 9 -63 11 -73 13 -277 17 -945 18 -420 1 -768 -2
-774 -5z m1648 -239 c21 -5 62 -11 89 -15 194 -24 486 -147 674 -282 118 -85
267 -231 349 -343 35 -47 69 -94 78 -105 8 -11 44 -78 79 -150 77 -157 123
-288 146 -424 6 -31 13 -67 16 -81 3 -14 7 -254 10 -533 l5 -508 -684 1 c-537
1 -702 5 -773 16 -266 42 -481 124 -685 262 -108 73 -128 89 -214 170 -281
266 -453 607 -502 997 -4 33 -8 273 -9 533 l-2 473 692 -1 c381 -1 710 -5 731
-10z"/>
<path d="M2267 3334 c-1 -1 -51 -4 -112 -8 -60 -3 -137 -10 -170 -16 -33 -6
-73 -13 -90 -16 -16 -3 -70 -17 -120 -31 -500 -141 -930 -497 -1160 -962 -83
-168 -152 -377 -171 -516 -3 -27 -8 -53 -9 -56 -13 -20 -18 -289 -19 -944 -1
-412 0 -758 3 -768 3 -17 36 -18 595 -16 634 1 691 4 897 53 90 22 249 77 344
121 67 31 259 141 289 166 6 5 40 32 76 60 272 212 489 513 603 836 30 86 61
194 73 257 2 12 6 32 9 46 6 29 13 82 21 165 7 62 12 1574 6 1610 -3 20 -11
20 -534 20 -291 0 -530 -1 -531 -1z m832 -916 c-1 -790 -3 -818 -86 -1073 -36
-111 -143 -333 -165 -343 -5 -2 -8 -8 -8 -13 0 -21 -149 -209 -221 -279 -29
-29 -103 -95 -141 -126 -157 -131 -436 -264 -649 -309 -167 -35 -208 -38 -692
-40 l-488 -1 2 685 c1 609 3 698 19 796 21 127 31 168 71 286 189 557 706 993
1274 1076 22 3 60 9 85 13 25 4 260 8 523 9 l478 2 -2 -683z"/>
<path d="M3677 3328 c-20 -12 -13 -1202 7 -1304 2 -12 7 -39 10 -60 4 -22 15
-75 26 -119 151 -631 631 -1145 1250 -1340 97 -30 132 -38 295 -69 82 -15 261
-19 950 -18 413 0 758 1 768 1 18 1 19 25 14 639 -3 383 -9 655 -15 682 -6 25
-12 59 -15 75 -67 403 -315 819 -657 1099 -236 194 -582 352 -855 391 -22 3
-51 8 -65 10 -14 2 -56 7 -95 11 -91 9 -1604 11 -1618 2z m1673 -241 c14 -3
43 -8 65 -12 183 -27 441 -129 610 -240 303 -200 538 -501 653 -840 17 -49 33
-101 36 -115 2 -14 12 -59 21 -100 26 -124 29 -186 30 -665 l0 -460 -705 0
c-696 0 -710 1 -874 31 -43 8 -201 57 -258 81 -490 199 -848 610 -982 1129 -9
34 -18 79 -21 100 -3 22 -8 50 -12 64 -3 14 -8 254 -10 533 l-5 508 714 -4
c392 -2 724 -6 738 -10z"/>
</g>
</svg>
